<svg clip-rule="evenodd" fill-rule="evenodd" stroke-linecap="round" stroke-linejoin="round" stroke-miterlimit="1.5" width="63" height="28" viewBox="0 0 63 28" xmlns="http://www.w3.org/2000/svg" xmlns:xlink="http://www.w3.org/1999/xlink"><clipPath id="a"><path clip-rule="evenodd" d="m0 0h62.606v27.586h-62.606z"/></clipPath><path d="m0 0h62.606v27.586h-62.606z" fill="none"/><g clip-path="url(#a)"><circle cx="11.856" cy="15.732" fill="none" r="11.25" stroke="#000" stroke-width="1.2"/><g fill-rule="nonzero"><path d="m27.106 9.294 2.014-4.725h.863l2 4.725h-.824l-.552-1.297h-2.145l-.555 1.297zm1.613-1.983h1.655l-.81-1.93h-.029z"/><path d="m34.28 9.364c-.619 0-1.112-.135-1.479-.406s-.569-.646-.604-1.127h.843c.024.28.145.494.362.642s.519.221.906.221c.344 0 .605-.059.785-.176.179-.118.269-.292.269-.523 0-.18-.06-.325-.181-.436s-.306-.191-.556-.24l-.935-.188c-.422-.087-.741-.237-.957-.451s-.324-.486-.324-.817c0-.422.159-.755.478-.999.318-.243.752-.365 1.3-.365.554 0 1.003.128 1.347.383s.54.611.587 1.066h-.843c-.115-.53-.494-.796-1.136-.796-.293 0-.523.055-.689.166s-.249.269-.249.474c0 .325.232.533.695.626l.976.197c.433.087.755.239.966.457s.316.504.316.861c0 .452-.164.803-.493 1.055-.329.251-.79.377-1.382.377z"/><path d="m39.116 9.375c-.48 0-.899-.1-1.256-.3-.358-.2-.634-.484-.831-.85-.196-.366-.294-.796-.294-1.287 0-.496.098-.926.294-1.29.196-.365.473-.647.831-.847s.776-.3 1.256-.3c.376 0 .709.063 1 .188.291.126.53.307.717.544s.31.522.369.855h-.832c-.058-.279-.196-.494-.415-.646s-.499-.228-.839-.228c-.489 0-.875.153-1.156.459s-.421.728-.421 1.265.14.959.421 1.265.666.459 1.156.459c.34 0 .62-.076.839-.228s.357-.367.415-.646h.832c-.059.331-.182.616-.369.853-.187.238-.426.42-.717.545-.291.126-.624.188-1 .188z"/><path d="m45.221 9.294h-3.363v-4.725h3.363v.702h-2.553v1.231h2.389v.685h-2.389v1.406h2.553v.702z"/><path d="m50.423 9.294h-.887l-2.689-3.593h-.023v3.593h-.77v-4.725h.872l2.705 3.633h.023v-3.633h.77v4.725z"/><path d="m53.523 9.294h-.8v-4.023h-1.619v-.702h4.037v.702h-1.619v4.023z"/><path d="m27.917 18.1h-.81v-4.725h3.305v.702h-2.494v1.293h2.322v.701h-2.322v2.029z"/><path d="m30.038 18.1 2.014-4.725h.863l2 4.725h-.824l-.552-1.297h-2.145l-.555 1.297zm1.613-1.983h1.655l-.81-1.93h-.029z"/><path d="m35.491 18.1v-4.725h.81v4.023h2.511v.702z"/><path d="m39.481 18.1v-4.725h.81v4.023h2.511v.702z"/><path d="m27.106 22.17h.81v4.725h-.81z"/><path d="m29.025 26.895v-4.725h.81v2.106h.023l2.224-2.106h1.003l-2.117 1.995 2.174 2.73h-.981l-1.78-2.238-.547.435v1.803h-.81z"/><path d="m33.232 26.895 2.014-4.725h.863l2 4.725h-.824l-.552-1.297h-2.145l-.555 1.297zm1.613-1.983h1.655l-.81-1.93h-.029z"/><path d="m40.127 26.965c-.528 0-.943-.116-1.244-.349s-.472-.564-.513-.995h.787c.025.221.119.389.283.506.163.117.389.175.676.175.307 0 .548-.07.722-.211s.262-.333.262-.577c0-.233-.083-.417-.25-.555-.167-.137-.388-.206-.663-.206h-.744v-.628h.772c.234 0 .422-.062.563-.185.141-.124.212-.287.212-.49 0-.213-.076-.382-.229-.508s-.359-.189-.62-.189c-.263 0-.473.059-.629.176-.157.117-.257.291-.3.521h-.759c.022-.275.106-.514.252-.717s.345-.359.596-.468c.251-.11.541-.164.872-.164.32 0 .599.051.837.154s.423.248.554.435.196.405.196.653c0 .228-.066.432-.199.612s-.321.321-.566.422v.029c.287.079.508.219.661.418.154.199.231.441.231.725 0 .285-.072.534-.217.748-.144.213-.348.378-.611.494s-.573.174-.932.174z"/><path d="m42.71 26.895v-4.725h2.347c.491 0 .876.113 1.157.34.28.226.421.543.421.95 0 .231-.053.434-.159.607-.106.174-.261.307-.466.4v.026c.199 0 .352.053.461.159s.164.261.164.464v1.779h-.81v-1.874h-2.303v1.874h-.81zm.81-2.564h1.472c.267 0 .473-.064.621-.191.147-.128.221-.308.221-.542 0-.235-.074-.416-.221-.543s-.354-.19-.621-.19h-1.472z"/><path d="m49.61 26.965c-.422 0-.785-.066-1.091-.197-.305-.131-.539-.329-.702-.594-.162-.265-.244-.599-.244-1.001v-3.002h.821v2.921c0 .367.1.647.301.839s.515.289.943.289c.425 0 .737-.099.937-.298s.3-.473.3-.824v-2.926h.804v3.014c0 .585-.182 1.028-.545 1.329s-.872.452-1.526.452z"/><path d="m54.483 26.965c-.619 0-1.112-.135-1.479-.406s-.569-.646-.604-1.127h.843c.024.28.145.494.362.642s.519.221.906.221c.344 0 .605-.059.785-.176.179-.118.269-.292.269-.523 0-.18-.06-.325-.181-.436s-.306-.191-.556-.24l-.935-.188c-.422-.087-.741-.237-.957-.451s-.324-.486-.324-.817c0-.422.159-.755.478-.999.318-.243.752-.365 1.3-.365.554 0 1.003.128 1.347.383s.54.611.587 1.066h-.843c-.115-.53-.494-.796-1.136-.796-.293 0-.523.055-.689.166s-.249.269-.249.474c0 .325.232.533.695.626l.976.197c.433.087.755.239.966.457s.316.504.316.861c0 .452-.164.803-.493 1.055-.329.251-.79.377-1.382.377z"/></g><path d="m62.606.499h-62.606" fill="none" stroke="#000" stroke-linecap="butt"/><path d="m62.606 6.937h-4" fill="none" stroke="#000" stroke-linecap="butt"/><path d="m60.606 8.937v-4" fill="none" stroke="#000" stroke-linecap="butt"/><path d="m62.606 15.738h-4" fill="none" stroke="#000" stroke-linecap="butt"/><path d="m62.02 23.119-2.828 2.828" fill="none" stroke="#000" stroke-linecap="butt"/><path d="m62.02 25.947-2.828-2.828" fill="none" stroke="#000" stroke-linecap="butt"/></g></svg>