<svg clip-rule="evenodd" fill-rule="evenodd" stroke-linecap="round" stroke-linejoin="round" stroke-miterlimit="1.5" width="69" height="67" viewBox="0 0 69 67" xmlns="http://www.w3.org/2000/svg" xmlns:xlink="http://www.w3.org/1999/xlink"><clipPath id="a"><path clip-rule="evenodd" d="m0 0h1000v1000h-1000z"/></clipPath><g transform="scale(.0685 .066064)"><path d="m0 0h1000v1000h-1000z" fill="none"/><g clip-path="url(#a)"><circle cx="20" cy="18" fill="none" r="7" stroke="#f6f209" stroke-width="1.4" transform="matrix(10.42755559959 0 0 10.81198075336 -128.2610594646 -111.32962448674)"/><circle cx="47.429" cy="72.429" fill="#f6f209" r="1.429" transform="matrix(14.598572 0 0 15.136767 -612.10290352636 -1013.0520373938)"/><g fill="#fff" fill-rule="nonzero"><path d="m.077-0v-.675h.311c.075 0 .134.019.175.056.041.038.062.089.062.155 0 .065-.021.116-.062.154s-.1.057-.175.057h-.195v.253zm.116-.353h.188c.042 0 .074-.01.096-.03.021-.02.032-.047.032-.081 0-.035-.011-.062-.032-.082-.022-.02-.054-.03-.096-.03h-.188z" transform="matrix(102.190004 0 0 105.957369 207.47641763853 73.55417774)"/><path d="m.383.01c-.068 0-.128-.014-.179-.043-.052-.029-.091-.069-.12-.121-.028-.052-.042-.113-.042-.184 0-.07.014-.132.042-.184.029-.052.068-.092.12-.12.051-.029.111-.043.179-.043.07 0 .13.014.181.043.051.028.091.068.119.12s.042.113.042.184-.014.132-.043.184c-.028.052-.068.093-.119.121-.051.029-.111.043-.18.043zm.001-.101c.07 0 .125-.022.165-.067.039-.044.059-.104.059-.18s-.02-.136-.059-.18c-.04-.044-.095-.066-.166-.066-.07 0-.125.022-.165.066-.039.044-.059.104-.059.18s.02.137.059.181c.04.044.095.066.166.066z" transform="matrix(102.190004 0 0 105.957369 273.84305880059 73.55417774)"/><path d="m.331.01c-.088 0-.158-.019-.211-.058-.052-.039-.081-.092-.086-.161h.12c.004.04.021.071.052.092s.074.031.129.031c.05 0 .087-.008.113-.025.025-.017.038-.042.038-.075 0-.025-.009-.046-.026-.062s-.044-.027-.079-.034l-.134-.027c-.06-.012-.106-.034-.137-.064-.03-.031-.046-.07-.046-.117 0-.06.023-.108.068-.143.046-.035.108-.052.186-.052.079 0 .143.018.192.055.05.036.078.087.084.152h-.12c-.017-.076-.071-.114-.162-.114-.042 0-.075.008-.099.024s-.035.038-.035.068c0 .046.033.076.099.089l.139.028c.062.013.108.034.138.066.03.031.045.072.045.122 0 .065-.023.115-.07.151s-.113.054-.198.054z" transform="matrix(102.190004 0 0 105.957369 352.18871880154 73.55417774)"/><path d="m.365-0h-.114v-.575h-.231v-.1h.577v.1h-.232z" transform="matrix(102.190004 0 0 105.957369 415.14903136312 73.55417774)"/><path d="m.035-.298h.246v.096h-.246z" transform="matrix(102.190004 0 0 105.957369 465.39245486265 73.55417774)"/><path d="m.193-0h-.116v-.675h.472v.1h-.356v.185h.332v.1h-.332z" transform="matrix(102.190004 0 0 105.957369 497.63889018772 73.55417774)"/><path d="m.383.01c-.068 0-.128-.014-.179-.043-.052-.029-.091-.069-.12-.121-.028-.052-.042-.113-.042-.184 0-.07.014-.132.042-.184.029-.052.068-.092.12-.12.051-.029.111-.043.179-.043.07 0 .13.014.181.043.051.028.091.068.119.12s.042.113.042.184-.014.132-.043.184c-.028.052-.068.093-.119.121-.051.029-.111.043-.18.043zm.001-.101c.07 0 .125-.022.165-.067.039-.044.059-.104.059-.18s-.02-.136-.059-.18c-.04-.044-.095-.066-.166-.066-.07 0-.125.022-.165.066-.039.044-.059.104-.059.18s.02.137.059.181c.04.044.095.066.166.066z" transform="matrix(102.190004 0 0 105.957369 554.63810945026 73.55417774)"/><path d="m.077-0v-.675h.336c.07 0 .125.016.165.049.04.032.06.077.06.135 0 .033-.008.062-.023.087s-.037.044-.066.057v.004c.028 0 .05.007.066.023.015.015.023.037.023.066v.254h-.116v-.268h-.329v.268zm.116-.366h.21c.039 0 .068-.009.089-.028.021-.018.032-.044.032-.077 0-.034-.011-.059-.032-.078-.021-.018-.05-.027-.089-.027h-.21z" transform="matrix(102.190004 0 0 105.957369 632.98378404978 73.55417774)"/><path d="m.077-0v-.675h.163l.219.514h.003l.219-.514h.162v.675h-.116v-.524h-.003l-.219.524h-.097l-.219-.525h-.003v.525z" transform="matrix(102.190004 0 0 105.957369 704.85728394311 73.55417774)"/><path d="m.381.012c-.068 0-.128-.015-.179-.043-.051-.029-.091-.069-.119-.122-.028-.052-.042-.113-.042-.184s.014-.132.042-.184.068-.092.119-.121.111-.043.179-.043c.054 0 .102.009.143.027.042.018.076.044.103.078.026.033.044.074.052.122h-.119c-.008-.04-.028-.071-.059-.093-.031-.021-.071-.032-.12-.032-.07 0-.125.022-.165.065-.04.044-.06.105-.06.181 0 .077.02.137.06.181s.095.066.165.066c.049 0 .089-.011.12-.033s.051-.052.059-.092h.119c-.008.047-.026.088-.052.122-.027.034-.061.06-.103.078-.041.018-.089.027-.143.027z" transform="matrix(102.190004 0 0 105.957369 207.47641763853 164.37477974)"/><path d="m.077-0v-.675h.336c.07 0 .125.016.165.049.04.032.06.077.06.135 0 .033-.008.062-.023.087s-.037.044-.066.057v.004c.028 0 .05.007.066.023.015.015.023.037.023.066v.254h-.116v-.268h-.329v.268zm.116-.366h.21c.039 0 .068-.009.089-.028.021-.018.032-.044.032-.077 0-.034-.011-.059-.032-.078-.021-.018-.05-.027-.089-.027h-.21z" transform="matrix(102.190004 0 0 105.957369 278.55518587075 164.37477974)"/><path d="m.558-0h-.481v-.675h.481v.1h-.365v.176h.341v.098h-.341v.201h.365z" transform="matrix(102.190004 0 0 105.957369 350.42870036265 164.37477974)"/><path d="m.005-0 .288-.675h.123l.286.675h-.118l-.079-.185h-.306l-.08.185zm.23-.283h.237l-.116-.276h-.004z" transform="matrix(102.190004 0 0 105.957369 411.68582672614 164.37477974)"/><path d="m.365-0h-.114v-.575h-.231v-.1h.577v.1h-.232z" transform="matrix(102.190004 0 0 105.957369 471.97766631184 164.37477974)"/><path d="m.081-.675h.116v.675h-.116z" transform="matrix(102.190004 0 0 105.957369 534.99484031136 164.37477974)"/><path d="m.285-0-.275-.675h.126l.218.548h.004l.216-.548h.123l-.275.675z" transform="matrix(102.190004 0 0 105.957369 563.38072706675 164.37477974)"/><path d="m.081-.675h.116v.675h-.116z" transform="matrix(102.190004 0 0 105.957369 635.59472405341 164.37477974)"/><path d="m.365-0h-.114v-.575h-.231v-.1h.577v.1h-.232z" transform="matrix(102.190004 0 0 105.957369 663.9806108088 164.37477974)"/><path d="m.262-0v-.252l-.252-.423h.132l.179.306h.003l.18-.306h.126l-.252.421v.254z" transform="matrix(102.190004 0 0 105.957369 726.99777020975 164.37477974)"/><path d="m.331.01c-.088 0-.158-.019-.211-.058-.052-.039-.081-.092-.086-.161h.12c.004.04.021.071.052.092s.074.031.129.031c.05 0 .087-.008.113-.025.025-.017.038-.042.038-.075 0-.025-.009-.046-.026-.062s-.044-.027-.079-.034l-.134-.027c-.06-.012-.106-.034-.137-.064-.03-.031-.046-.07-.046-.117 0-.06.023-.108.068-.143.046-.035.108-.052.186-.052.079 0 .143.018.192.055.05.036.078.087.084.152h-.12c-.017-.076-.071-.114-.162-.114-.042 0-.075.008-.099.024s-.035.038-.035.068c0 .046.033.076.099.089l.139.028c.062.013.108.034.138.066.03.031.045.072.045.122 0 .065-.023.115-.07.151s-.113.054-.198.054z" transform="matrix(102.190004 0 0 105.957369 208.21357253167 800.20108042744)"/><path d="m.365-0h-.114v-.575h-.231v-.1h.577v.1h-.232z" transform="matrix(102.190004 0 0 105.957369 271.17387049468 800.20108042744)"/><path d="m.077-0v-.675h.336c.07 0 .125.016.165.049.04.032.06.077.06.135 0 .033-.008.062-.023.087s-.037.044-.066.057v.004c.028 0 .05.007.066.023.015.015.023.037.023.066v.254h-.116v-.268h-.329v.268zm.116-.366h.21c.039 0 .068-.009.089-.028.021-.018.032-.044.032-.077 0-.034-.011-.059-.032-.078-.021-.018-.05-.027-.089-.027h-.21z" transform="matrix(102.190004 0 0 105.957369 334.1910444942 800.20108042744)"/><path d="m.005-0 .288-.675h.123l.286.675h-.118l-.079-.185h-.306l-.08.185zm.23-.283h.237l-.116-.276h-.004z" transform="matrix(102.190004 0 0 105.957369 406.06454438753 800.20108042744)"/><path d="m.365-0h-.114v-.575h-.231v-.1h.577v.1h-.232z" transform="matrix(102.190004 0 0 105.957369 466.35638397324 800.20108042744)"/><path d="m.383.01c-.068 0-.128-.014-.179-.043-.052-.029-.091-.069-.12-.121-.028-.052-.042-.113-.042-.184 0-.07.014-.132.042-.184.029-.052.068-.092.12-.12.051-.029.111-.043.179-.043.07 0 .13.014.181.043.051.028.091.068.119.12s.042.113.042.184-.014.132-.043.184c-.028.052-.068.093-.119.121-.051.029-.111.043-.18.043zm.001-.101c.07 0 .125-.022.165-.067.039-.044.059-.104.059-.18s-.02-.136-.059-.18c-.04-.044-.095-.066-.166-.066-.07 0-.125.022-.165.066-.039.044-.059.104-.059.18s.02.137.059.181c.04.044.095.066.166.066z" transform="matrix(102.190004 0 0 105.957369 524.26404317419 800.20108042744)"/><path d="m.331.01c-.088 0-.158-.019-.211-.058-.052-.039-.081-.092-.086-.161h.12c.004.04.021.071.052.092s.074.031.129.031c.05 0 .087-.008.113-.025.025-.017.038-.042.038-.075 0-.025-.009-.046-.026-.062s-.044-.027-.079-.034l-.134-.027c-.06-.012-.106-.034-.137-.064-.03-.031-.046-.07-.046-.117 0-.06.023-.108.068-.143.046-.035.108-.052.186-.052.079 0 .143.018.192.055.05.036.078.087.084.152h-.12c-.017-.076-.071-.114-.162-.114-.042 0-.075.008-.099.024s-.035.038-.035.068c0 .046.033.076.099.089l.139.028c.062.013.108.034.138.066.03.031.045.072.045.122 0 .065-.023.115-.07.151s-.113.054-.198.054z" transform="matrix(102.190004 0 0 105.957369 602.60971777371 800.20108042744)"/><path d="m.077-0v-.675h.311c.075 0 .134.019.175.056.041.038.062.089.062.155 0 .065-.021.116-.062.154s-.1.057-.175.057h-.195v.253zm.116-.353h.188c.042 0 .074-.01.096-.03.021-.02.032-.047.032-.081 0-.035-.011-.062-.032-.082-.022-.02-.054-.03-.096-.03h-.188z" transform="matrix(102.190004 0 0 105.957369 668.12476583672 800.20108042744)"/><path d="m.077-0v-.675h.116v.275h.363v-.275h.116v.675h-.116v-.3h-.363v.3z" transform="matrix(102.190004 0 0 105.957369 734.49140699878 800.20108042744)"/><path d="m.558-0h-.481v-.675h.481v.1h-.365v.176h.341v.098h-.341v.201h.365z" transform="matrix(102.190004 0 0 105.957369 811.07704856084 800.20108042744)"/><path d="m.077-0v-.675h.336c.07 0 .125.016.165.049.04.032.06.077.06.135 0 .033-.008.062-.023.087s-.037.044-.066.057v.004c.028 0 .05.007.066.023.015.015.023.037.023.066v.254h-.116v-.268h-.329v.268zm.116-.366h.21c.039 0 .068-.009.089-.028.021-.018.032-.044.032-.077 0-.034-.011-.059-.032-.078-.021-.018-.05-.027-.089-.027h-.21z" transform="matrix(102.190004 0 0 105.957369 872.3341895229 800.20108042744)"/><path d="m.558-0h-.481v-.675h.481v.1h-.365v.176h.341v.098h-.341v.201h.365z" transform="matrix(102.190004 0 0 105.957369 944.20768941623 800.20108042744)"/><path d="m.086-0v-.092h.175v-.457l-.187.127h-.003v-.113l.206-.14h.097v.583h.149v.092z" transform="matrix(102.190004 0 0 105.957369 208.21357253167 891.02168242744)"/><path d="m.086-0v-.092h.175v-.457l-.187.127h-.003v-.113l.206-.14h.097v.583h.149v.092z" transform="matrix(102.190004 0 0 105.957369 266.97282483167 891.02168242744)"/><path d="m.116.01c-.02 0-.038-.007-.052-.022-.015-.014-.022-.031-.022-.052s.007-.038.022-.052c.014-.015.032-.022.052-.022.021 0 .038.007.053.022.014.014.021.031.021.052s-.007.038-.021.052c-.015.015-.032.022-.053.022z" transform="matrix(102.190004 0 0 105.957369 325.73207713167 891.02168242744)"/><path d="m.305.01c-.086 0-.152-.028-.198-.085s-.069-.139-.069-.245c0-.117.023-.208.07-.271s.114-.094.202-.094c.063 0 .114.015.154.044.039.03.065.072.076.128h-.114c-.008-.027-.022-.047-.041-.06-.02-.013-.045-.02-.075-.02-.051 0-.089.02-.114.058-.026.038-.04.098-.043.177h.003c.017-.026.04-.047.069-.061s.061-.021.097-.021c.045 0 .084.009.118.027.033.018.059.043.078.076.018.033.027.071.027.115 0 .047-.01.088-.029.122-.02.035-.048.062-.084.081s-.078.029-.127.029zm-.004-.092c.041 0 .074-.012.098-.036s.036-.057.036-.097c0-.041-.013-.073-.04-.097-.026-.025-.061-.037-.105-.037-.039 0-.071.011-.096.032s-.037.049-.037.083c0 .045.013.082.04.11s.062.042.104.042z" transform="matrix(102.190004 0 0 105.957369 349.46268365626 891.02168242744)"/><path d="m.272.01c-.066 0-.119-.015-.16-.046-.04-.031-.065-.075-.077-.134h.115c.009.03.023.052.042.066.02.014.046.022.08.022.05 0 .087-.02.111-.06.023-.039.036-.102.036-.189h-.003c-.018.029-.04.05-.068.065s-.061.022-.097.022c-.044 0-.083-.008-.116-.026-.032-.018-.058-.042-.076-.074s-.027-.069-.027-.111c0-.046.01-.086.03-.12.019-.035.047-.062.082-.081.036-.019.077-.029.125-.029.085 0 .15.029.195.087.046.058.068.142.068.252 0 .117-.022.206-.066.266-.043.06-.108.09-.194.09zm.009-.345c.039 0 .071-.011.095-.032.025-.022.037-.05.036-.085-.001-.042-.014-.076-.04-.102-.026-.025-.059-.038-.1-.038-.04 0-.071.012-.095.036s-.036.055-.036.095c0 .039.012.069.038.092.025.023.059.034.102.034z" transform="matrix(102.190004 0 0 105.957369 408.22193595626 891.02168242744)"/><path d="m.077-0v-.675h.116v.301h.003l.318-.301h.143l-.302.285.311.39h-.141l-.254-.32-.078.062v.258z" transform="matrix(102.190004 0 0 105.957369 491.73397219373 891.02168242744)"/><path d="m.077-0v-.675h.163l.219.514h.003l.219-.514h.162v.675h-.116v-.524h-.003l-.219.524h-.097l-.219-.525h-.003v.525z" transform="matrix(102.190004 0 0 105.957369 560.54162598134 891.02168242744)"/></g><path d="m8 23v51" fill="none" stroke="#fff" stroke-linecap="butt" transform="matrix(14.598572 0 0 15.136767 -36.49861106419 -128.62878461006)"/><path d="m8 23v51" fill="none" stroke="#fff" stroke-linecap="square" stroke-width="1.41" transform="matrix(0 15.136767 -1.14498060053 0 165.0189381352 870.39783738994)"/><path d="m8 23v51" fill="none" stroke="#fff" stroke-linecap="square" stroke-width="1.41" transform="matrix(0 15.136767 -1.14498060053 0 165.0189381352 688.75663338994)"/></g></g></svg>